<?xml version="1.0" standalone="no"?>
<!DOCTYPE svg PUBLIC "-//W3C//DTD SVG 20010904//EN"
 "http://www.w3.org/TR/2001/REC-SVG-20010904/DTD/svg10.dtd">
<svg version="1.0" xmlns="http://www.w3.org/2000/svg"
 width="1184.000000pt" height="1184.000000pt" viewBox="0 0 1184.000000 1184.000000"
 preserveAspectRatio="xMidYMid meet">
<metadata>
Created by potrace 1.14, written by Peter Selinger 2001-2017
</metadata>
<g transform="translate(0.000000,1184.000000) scale(0.100000,-0.100000)"
fill="#000000" stroke="none">
<path d="M0 9278 c0 -529 3 -958 6 -955 4 3 15 2 25 -3 11 -7 20 -7 24 0 4 6
15 6 30 0 16 -6 25 -6 25 0 0 6 9 6 23 1 13 -5 30 -5 39 0 11 6 19 5 23 -1 4
-7 12 -7 25 0 13 7 21 7 25 0 4 -7 12 -7 25 0 13 7 21 7 25 0 4 -6 13 -7 23
-1 11 6 24 6 34 0 11 -6 19 -6 23 1 4 7 12 7 25 0 13 -7 21 -7 25 0 4 6 13 7
24 1 10 -6 23 -6 31 -1 8 5 19 5 25 0 6 -5 17 -5 25 0 8 5 21 5 31 -1 12 -6
20 -5 24 1 4 6 11 7 17 4 16 -10 51 -11 70 -2 10 5 19 4 23 -2 4 -7 12 -7 25
0 13 7 21 7 25 0 4 -6 13 -7 24 -1 10 6 23 6 31 1 8 -5 21 -5 31 1 11 6 20 5
24 -1 4 -7 12 -7 25 0 13 7 21 7 25 0 4 -6 13 -7 23 -2 19 9 54 8 70 -2 6 -3
13 -2 17 3 3 7 15 7 30 1 15 -6 27 -6 30 0 4 7 13 6 25 0 13 -7 21 -7 25 0 4
7 12 7 25 0 13 -7 21 -7 25 0 4 7 12 7 25 0 13 -7 21 -7 25 0 4 6 13 7 24 1
10 -6 23 -6 31 -1 8 5 21 5 31 -1 11 -6 20 -5 24 1 4 7 12 7 25 0 13 -7 21 -7
25 0 4 7 12 7 25 0 13 -7 21 -7 25 0 4 6 13 7 24 1 10 -6 23 -6 31 -1 8 5 21
5 31 -1 11 -6 20 -5 24 1 4 6 13 7 23 2 19 -9 54 -8 70 2 6 3 13 2 17 -4 4 -7
12 -7 25 0 13 7 21 7 25 0 4 -6 13 -7 24 -1 10 6 23 6 31 1 8 -5 21 -5 31 1
11 6 20 5 24 -1 4 -7 12 -7 25 0 13 7 21 7 25 0 4 -6 13 -7 23 -2 19 9 54 8
70 -2 6 -3 13 -2 17 3 4 7 15 7 30 1 16 -6 25 -6 25 0 0 6 9 6 23 1 13 -5 30
-5 39 0 11 6 19 5 23 -1 4 -7 12 -7 25 0 13 7 21 7 25 0 4 -7 12 -7 25 0 13 7
21 7 25 0 4 -6 13 -7 23 -1 11 6 24 6 34 0 11 -6 19 -6 23 1 4 7 12 7 25 0 13
-7 21 -7 25 0 4 6 13 7 24 1 10 -6 23 -6 31 -1 8 5 19 5 25 0 6 -5 17 -5 25 0
8 5 21 5 31 -1 11 -6 20 -5 24 1 4 6 13 7 24 1 10 -6 23 -6 31 -1 8 5 21 5 31
-1 11 -6 20 -5 24 1 4 6 15 6 30 0 16 -6 25 -6 25 0 0 6 9 6 23 1 13 -5 30 -5
39 0 11 6 19 5 23 -1 4 -7 12 -7 25 0 13 7 21 7 25 0 4 -7 12 -7 25 0 13 7 21
7 25 0 4 -6 13 -7 23 -1 11 6 24 6 34 0 11 -6 19 -6 23 1 4 7 12 7 25 0 13 -7
21 -7 25 0 4 6 13 7 24 1 10 -6 23 -6 31 -1 8 5 19 5 25 0 6 -5 17 -5 25 0 8
5 21 5 31 -1 11 -6 20 -5 24 1 4 6 13 7 23 2 19 -9 54 -8 70 2 6 3 13 2 17 -4
4 -7 12 -7 25 0 13 7 21 7 25 0 4 -6 13 -7 24 -1 10 6 23 6 31 1 8 -5 21 -5
31 1 11 6 20 5 24 -1 4 -7 12 -7 25 0 13 7 21 7 25 0 4 -6 13 -7 23 -2 19 9
54 8 70 -2 6 -3 13 -2 17 3 3 7 15 7 30 1 15 -6 27 -6 30 0 4 7 13 6 25 0 13
-7 21 -7 25 0 4 7 12 7 25 0 13 -7 21 -7 25 0 4 7 12 7 25 0 13 -7 21 -7 25 0
4 6 13 7 24 1 10 -6 23 -6 31 -1 8 5 21 5 31 -1 11 -6 20 -5 24 1 4 7 12 7 25
0 13 -7 21 -7 25 0 4 7 12 7 25 0 13 -7 21 -7 25 0 4 6 13 7 24 1 10 -6 23 -6
31 -1 8 5 21 5 31 -1 11 -6 20 -5 24 1 4 6 13 7 23 2 19 -9 54 -8 70 2 6 3 13
2 17 -4 4 -7 12 -7 25 0 13 7 21 7 25 0 4 -6 13 -7 24 -1 10 6 23 6 31 1 8 -5
21 -5 31 1 11 6 20 5 24 -1 4 -7 12 -7 25 0 13 7 21 7 25 0 4 -6 13 -7 23 -2
19 9 54 8 70 -2 6 -3 13 -2 17 3 4 7 15 7 30 1 16 -6 25 -6 25 0 0 6 9 6 23 1
13 -5 30 -5 39 0 11 6 19 5 23 -1 4 -7 12 -7 25 0 13 7 21 7 25 0 4 -7 12 -7
25 0 13 7 21 7 25 0 4 -6 13 -7 23 -1 11 6 24 6 34 0 11 -6 19 -6 23 1 4 7 12
7 25 0 13 -7 21 -7 25 0 4 6 13 7 24 1 10 -6 23 -6 31 -1 8 5 19 5 25 0 6 -5
17 -5 25 0 8 5 21 5 31 -1 12 -6 20 -5 24 1 4 6 11 7 17 4 16 -10 51 -11 70
-2 10 5 19 4 23 -2 4 -7 12 -7 25 0 13 7 21 7 25 0 4 -6 13 -7 24 -1 10 6 23
6 31 1 8 -5 21 -5 31 1 11 6 20 5 24 -1 4 -7 12 -7 25 0 13 7 21 7 25 0 4 -6
13 -7 23 -2 19 9 54 8 70 -2 6 -3 13 -2 17 3 3 7 15 7 30 1 15 -6 27 -6 30 0
4 7 13 6 25 0 13 -7 21 -7 25 0 4 7 12 7 25 0 13 -7 21 -7 25 0 4 7 12 7 25 0
13 -7 21 -7 25 0 4 6 13 7 24 1 10 -6 23 -6 31 -1 8 5 21 5 31 -1 11 -6 20 -5
24 1 4 7 12 7 25 0 13 -7 21 -7 25 0 4 7 12 7 25 0 13 -7 21 -7 25 0 4 6 13 7
24 1 10 -6 23 -6 31 -1 8 5 21 5 31 -1 11 -6 20 -5 24 1 4 6 13 7 23 2 19 -9
54 -8 70 2 6 3 13 2 17 -4 4 -7 12 -7 25 0 13 7 21 7 25 0 4 -6 13 -7 24 -1
10 6 23 6 31 1 8 -5 21 -5 31 1 11 6 20 5 24 -1 4 -7 12 -7 25 0 13 7 21 7 25
0 4 -6 13 -7 24 -1 10 6 23 6 31 1 8 -5 21 -5 31 1 11 6 20 5 24 -1 4 -7 12
-7 25 0 13 7 21 7 25 0 4 -6 13 -7 24 -1 10 6 23 6 31 1 8 -5 21 -5 31 1 11 6
20 5 24 -1 4 -7 12 -7 25 0 13 7 21 7 25 0 4 -6 13 -7 23 -2 19 9 54 8 70 -2
6 -3 13 -2 17 3 3 7 15 7 30 1 15 -6 27 -6 30 0 4 7 13 6 25 0 13 -7 21 -7 25
0 4 7 12 7 25 0 13 -7 21 -7 25 0 4 7 12 7 25 0 13 -7 21 -7 25 0 4 6 13 7 24
1 10 -6 23 -6 31 -1 8 5 21 5 31 -1 11 -6 20 -5 24 1 4 7 12 7 25 0 13 -7 21
-7 25 0 4 7 12 7 25 0 13 -7 21 -7 25 0 4 6 13 7 24 1 10 -6 23 -6 31 -1 8 5
21 5 31 -1 11 -6 20 -5 24 1 4 6 13 7 23 2 19 -9 54 -8 70 2 6 3 13 2 17 -4 4
-7 12 -7 25 0 13 7 21 7 25 0 4 -6 13 -7 24 -1 10 6 23 6 31 1 8 -5 21 -5 31
1 11 6 20 5 24 -1 4 -7 12 -7 25 0 13 7 21 7 25 0 4 -6 13 -7 23 -2 19 9 54 8
70 -2 6 -3 13 -2 17 4 4 6 12 7 24 1 10 -6 23 -6 31 -1 8 5 19 5 25 0 6 -5 17
-5 25 0 8 5 21 5 31 -1 11 -6 20 -5 24 1 4 7 12 7 25 0 13 -7 21 -7 25 0 4 6
13 7 23 1 11 -6 24 -6 34 0 11 6 19 6 23 -1 4 -7 12 -7 25 0 13 7 21 7 25 0 4
-7 12 -7 25 0 13 7 21 7 25 0 4 -6 12 -7 23 -1 9 5 26 5 39 0 14 -5 23 -5 23
1 0 6 9 6 25 0 15 -6 26 -6 30 0 4 6 13 7 24 1 10 -6 23 -6 31 -1 8 5 21 5 31
-1 11 -6 20 -5 24 1 4 6 13 7 24 1 10 -6 23 -6 31 -1 8 5 19 5 25 0 6 -5 17
-5 25 0 8 5 21 5 31 -1 11 -6 20 -5 24 1 4 7 12 7 25 0 13 -7 21 -7 25 0 4 6
13 7 23 1 11 -6 24 -6 34 0 11 6 19 6 23 -1 4 -7 12 -7 25 0 13 7 21 7 25 0 4
-7 12 -7 25 0 13 7 21 7 25 0 4 -6 12 -7 23 -1 9 5 26 5 39 0 14 -5 23 -5 23
1 0 6 9 6 25 0 15 -6 26 -6 30 0 4 6 13 7 24 1 10 -6 23 -6 31 -1 8 5 21 5 31
-1 11 -6 20 -5 24 1 4 6 15 6 30 0 16 -6 25 -6 25 0 0 6 9 6 23 1 13 -5 30 -5
39 0 11 6 19 5 23 -1 4 -7 12 -7 25 0 13 7 21 7 25 0 4 -7 12 -7 25 0 13 7 21
7 25 0 4 -6 13 -7 23 -1 11 6 24 6 34 0 11 -6 19 -6 23 1 4 7 12 7 25 0 13 -7
21 -7 25 0 4 6 13 7 24 1 10 -6 23 -6 31 -1 8 5 19 5 25 0 6 -5 17 -5 25 0 8
5 21 5 31 -1 11 -6 20 -5 24 1 4 6 13 7 23 2 19 -9 54 -8 70 2 6 3 13 2 17 -4
4 -7 12 -7 25 0 13 7 21 7 25 0 4 -6 13 -7 24 -1 10 6 23 6 31 1 8 -5 21 -5
31 1 11 6 20 5 24 -1 4 -7 12 -7 25 0 13 7 21 7 25 0 4 -6 13 -7 23 -2 19 9
54 8 70 -2 6 -3 13 -2 17 3 3 7 15 7 30 1 15 -6 27 -6 30 0 4 7 13 6 25 0 13
-7 21 -7 25 0 4 7 12 7 25 0 13 -7 21 -7 25 0 4 7 12 7 25 0 13 -7 21 -7 25 0
4 6 13 7 24 1 10 -6 23 -6 31 -1 8 5 21 5 31 -1 11 -6 20 -5 24 1 4 7 12 7 25
0 13 -7 21 -7 25 0 4 7 12 7 25 0 13 -7 21 -7 25 0 4 6 13 7 24 1 10 -6 23 -6
31 -1 8 5 21 5 31 -1 11 -6 20 -5 24 1 4 6 13 7 23 2 19 -9 54 -8 70 2 6 3 13
2 17 -4 4 -7 12 -7 25 0 13 7 21 7 25 0 4 -6 13 -7 24 -1 10 6 23 6 31 1 8 -5
21 -5 31 1 11 6 20 5 24 -1 4 -7 12 -7 25 0 13 7 21 7 25 0 4 -6 13 -7 23 -2
19 9 54 8 70 -2 6 -3 13 -2 17 3 4 7 15 7 30 1 16 -6 25 -6 25 0 0 6 9 6 23 1
13 -5 30 -5 39 0 11 6 19 5 23 -1 4 -7 12 -7 25 0 13 7 21 7 25 0 4 -7 12 -7
25 0 13 7 21 7 25 0 4 -6 13 -7 23 -1 11 6 24 6 34 0 11 -6 19 -6 23 1 4 7 12
7 25 0 13 -7 21 -7 25 0 4 6 13 7 24 1 10 -6 23 -6 31 -1 8 5 19 5 25 0 6 -5
17 -5 25 0 8 5 21 5 31 -1 11 -6 20 -5 24 1 4 6 13 7 24 1 10 -6 23 -6 31 -1
8 5 21 5 31 -1 11 -6 20 -5 24 1 4 6 13 7 24 1 10 -6 23 -6 31 -1 8 5 19 5 25
0 6 -5 17 -5 25 0 8 5 21 5 31 -1 11 -6 20 -5 24 1 4 7 12 7 25 0 13 -7 21 -7
25 0 4 7 12 7 24 0 10 -5 21 -6 25 -3 3 3 6 438 6 965 l0 958 -5920 0 -5920 0
0 -962z"/>
<path d="M0 4485 l0 -2885 1678 0 c923 0 1681 3 1684 6 4 3 3 18 -2 33 -4 16
-4 34 0 41 5 7 5 23 0 34 -4 12 -4 30 0 41 4 11 4 32 -1 47 -4 15 -4 30 1 33
4 3 5 20 1 37 -4 18 -6 42 -5 53 1 11 3 32 3 47 1 16 1 40 2 55 0 16 2 37 3
48 1 11 -1 35 -5 53 -4 17 -3 34 1 37 4 3 4 21 0 40 -4 19 -4 35 0 35 4 0 4
16 0 35 -4 19 -4 37 0 40 4 3 5 20 1 37 -4 18 -6 42 -5 53 1 11 3 32 3 47 1
16 1 40 2 55 0 16 2 37 3 48 1 11 -1 32 -5 46 -4 15 -3 32 1 39 5 7 5 23 0 34
-4 12 -4 30 0 41 4 11 4 32 -1 47 -4 15 -4 30 1 33 4 3 4 20 0 39 -4 19 -4 40
0 46 4 7 4 25 0 40 -4 15 -4 33 0 40 5 7 5 23 0 34 -4 12 -4 30 0 41 4 11 4
32 -1 47 -4 15 -4 30 1 33 4 3 5 20 1 37 -4 18 -6 42 -5 53 1 11 3 32 3 48 1
15 1 39 2 55 0 15 2 36 3 47 1 11 -1 35 -5 53 -4 17 -3 34 1 37 4 3 4 21 0 40
-4 19 -4 35 0 35 4 0 4 16 0 35 -4 19 -4 37 0 40 4 3 5 20 1 37 -4 18 -6 42
-5 53 1 11 3 32 3 48 1 15 1 39 2 55 0 15 2 36 3 47 1 11 -1 32 -5 46 -4 15
-3 32 1 39 5 7 5 23 0 34 -4 12 -4 30 0 41 4 11 4 32 -1 47 -4 15 -4 30 1 33
4 3 5 20 1 37 -4 18 -6 42 -5 53 1 11 3 32 3 48 1 15 1 39 2 55 0 15 2 36 3
47 1 11 -1 35 -5 53 -4 17 -3 34 1 37 4 3 4 21 0 40 -4 19 -4 35 0 35 4 0 4
16 0 35 -4 19 -4 37 0 40 4 3 5 20 1 37 -4 18 -6 42 -5 53 1 11 3 32 3 48 1
15 1 39 2 55 0 15 0 34 0 42 -1 8 -1 26 0 40 0 14 0 32 0 40 -2 18 0 58 3 85
1 11 -1 35 -5 53 -4 17 -3 34 1 37 4 3 4 21 0 40 -4 19 -4 35 0 35 4 0 4 16 0
35 -4 19 -4 37 0 40 4 3 5 20 1 37 -4 18 -6 42 -5 53 1 11 3 32 3 48 1 15 1
39 2 55 0 15 2 36 3 47 1 11 -1 35 -5 53 -4 17 -3 34 1 37 5 3 5 19 0 35 -5
16 -5 32 0 35 4 3 4 21 0 40 -4 19 -4 37 0 40 4 3 4 20 0 39 -4 19 -4 39 0 46
4 7 4 27 0 46 -4 19 -4 36 0 39 5 3 5 19 0 35 -5 16 -5 32 0 35 4 3 4 21 0 40
-4 19 -4 37 0 40 4 3 4 20 0 39 -4 19 -4 40 0 46 4 7 4 25 0 40 -4 15 -4 33 0
40 5 7 5 23 0 34 -4 12 -4 30 0 41 4 11 4 32 -1 47 -4 15 -4 30 1 33 4 3 5 20
1 37 -4 18 -6 42 -5 53 1 11 3 32 3 48 1 15 1 39 2 55 0 15 2 36 3 47 1 11 -1
35 -5 53 -4 17 -3 34 1 37 4 3 4 22 -1 42 -4 21 -8 38 -8 38 0 0 4 17 8 38 5
22 5 39 0 43 -5 3 -7 9 -4 14 3 4 5 32 5 62 0 29 0 61 0 71 0 9 0 25 0 35 0 9
0 35 1 57 0 22 0 47 0 55 -1 16 -1 51 2 118 1 23 0 42 -3 42 -3 0 -4 22 -3 49
1 45 -1 49 -23 54 -14 2 -27 1 -29 -3 -6 -9 -31 -7 -41 3 -4 3 -15 2 -25 -3
-11 -7 -20 -7 -24 0 -4 6 -15 6 -30 0 -14 -5 -25 -6 -25 -2 0 8 -204 7 -226
-2 -8 -3 -14 -2 -14 2 0 8 -68 8 -76 -1 -4 -4 -14 -2 -23 3 -10 5 -23 5 -31 0
-8 -5 -21 -5 -30 0 -9 5 -22 5 -30 0 -7 -4 -24 -4 -36 0 -14 6 -26 5 -29 0 -3
-6 -15 -6 -30 0 -15 6 -27 6 -30 -1 -4 -6 -13 -6 -23 0 -9 5 -26 5 -39 0 -13
-5 -25 -4 -28 1 -3 5 -18 5 -35 0 -17 -5 -30 -5 -30 0 0 5 -10 6 -22 1 -13 -4
-35 -5 -50 0 -16 4 -28 4 -28 -1 0 -5 -13 -5 -30 0 -18 5 -30 5 -30 0 0 -6
-10 -6 -23 -1 -13 5 -30 5 -37 1 -8 -5 -22 -4 -31 1 -11 5 -20 5 -24 0 -3 -6
-17 -6 -35 -1 -17 5 -30 5 -30 0 0 -5 -13 -5 -30 0 -18 5 -30 5 -30 0 0 -6
-10 -6 -25 0 -14 5 -25 6 -25 1 0 -5 -12 -6 -27 -2 -16 4 -43 4 -60 0 -18 -4
-33 -4 -33 0 0 7 -205 5 -226 -3 -8 -3 -14 -2 -14 2 0 8 -68 8 -76 -1 -4 -4
-14 -2 -23 3 -10 5 -23 5 -31 0 -8 -5 -21 -5 -30 0 -9 5 -22 5 -30 0 -7 -4
-24 -4 -36 0 -14 6 -26 5 -29 0 -3 -6 -15 -6 -30 0 -15 6 -27 6 -30 -1 -4 -6
-13 -6 -23 0 -9 5 -26 5 -39 0 -13 -5 -25 -4 -28 1 -3 5 -18 5 -35 0 -17 -5
-30 -5 -30 0 0 5 -10 6 -22 1 -13 -4 -35 -5 -50 0 -16 4 -28 4 -28 -1 0 -5
-13 -5 -30 0 -18 5 -30 5 -30 0 0 -6 -10 -6 -23 -1 -13 5 -30 5 -37 1 -8 -5
-22 -4 -31 1 -11 5 -20 5 -24 0 -3 -6 -17 -6 -35 -1 -17 5 -30 5 -30 0 0 -5
-13 -5 -30 0 -18 5 -30 5 -30 0 0 -6 -10 -6 -25 0 -14 5 -25 6 -25 1 0 -5 -12
-6 -27 -2 -16 4 -43 4 -60 0 -18 -4 -33 -4 -33 0 0 7 -205 5 -226 -3 -8 -3
-14 -2 -14 2 0 8 -68 8 -76 -1 -4 -4 -14 -2 -23 3 -10 5 -23 5 -31 0 -8 -5
-21 -5 -30 0 -9 5 -22 5 -30 0 -7 -4 -24 -4 -36 0 -14 6 -26 5 -29 0 -3 -6
-15 -6 -30 0 -15 6 -27 6 -30 0 -4 -7 -13 -6 -26 0 -19 11 -19 -22 -19 -2875z"/>
<path d="M4347 7362 c-28 -3 -29 -5 -25 -53 1 -27 1 -49 -2 -49 -4 0 -4 -102
0 -120 1 -3 1 -43 0 -90 -1 -47 -1 -94 0 -105 1 -21 1 -22 0 -96 -1 -25 0 -50
1 -55 1 -5 1 -12 0 -16 -2 -9 -3 -114 -1 -125 1 -5 1 -35 0 -68 0 -33 0 -76 0
-95 1 -19 1 -39 1 -45 -1 -20 0 -260 0 -275 1 -8 1 -53 0 -100 -2 -136 -2
-212 0 -250 1 -19 1 -42 0 -50 0 -8 0 -55 0 -105 0 -49 0 -96 0 -102 -1 -7 -1
-19 -2 -25 0 -21 0 -171 1 -193 1 -21 1 -23 0 -96 -1 -25 0 -50 1 -55 1 -5 1
-12 0 -16 -3 -9 -3 -114 -1 -125 3 -19 1 -134 -3 -140 -3 -5 -1 -17 3 -28 4
-11 4 -31 0 -45 -3 -14 -4 -36 0 -50 4 -14 3 -36 0 -50 -4 -14 -4 -34 0 -44 4
-11 4 -34 0 -50 -3 -17 -3 -48 1 -68 3 -21 4 -40 1 -42 -4 -5 -6 -103 -2 -123
1 -5 1 -37 0 -73 -1 -36 -1 -71 -1 -77 1 -7 1 -19 2 -25 0 -7 0 -49 -1 -93 -1
-181 -1 -212 1 -245 1 -19 1 -42 0 -50 0 -8 0 -55 0 -105 0 -49 0 -96 0 -102
-1 -21 -2 -43 -2 -133 0 -47 0 -110 0 -140 0 -30 0 -59 1 -65 1 -5 1 -48 0
-95 -1 -47 -1 -94 0 -105 1 -21 1 -22 0 -96 -1 -25 0 -50 1 -55 1 -5 1 -12 0
-16 -2 -9 -3 -114 -1 -125 1 -5 1 -35 0 -68 0 -33 0 -76 0 -95 1 -19 1 -39 1
-45 -1 -20 0 -260 0 -275 1 -8 1 -53 0 -100 -2 -136 -2 -212 0 -250 1 -19 1
-42 0 -50 0 -8 0 -55 0 -105 0 -49 0 -96 0 -102 -1 -7 -1 -19 -2 -25 0 -7 0
-32 2 -56 l2 -42 3759 0 3758 0 0 2879 0 2879 -25 4 c-14 3 -25 2 -25 -3 0 -4
-14 -4 -30 1 -17 5 -30 5 -30 0 0 -5 -10 -6 -22 -1 -13 4 -35 5 -50 0 -16 -4
-28 -4 -28 1 0 5 -13 5 -30 0 -16 -5 -32 -5 -34 -1 -6 8 -71 5 -86 -4 -6 -3
-10 -2 -10 4 0 6 -11 6 -30 1 -16 -5 -30 -6 -30 -2 0 4 -25 7 -55 7 -30 0 -55
-3 -55 -7 0 -4 -13 -3 -30 2 -18 5 -30 5 -30 0 0 -6 -9 -6 -22 -1 -13 5 -33 5
-45 0 -13 -5 -23 -5 -23 1 0 5 -13 5 -30 0 -16 -5 -30 -6 -30 -2 0 4 -25 7
-55 7 -30 0 -55 -3 -55 -7 0 -4 -13 -3 -30 2 -16 5 -30 6 -30 2 0 -4 -22 -7
-50 -7 -27 0 -50 2 -50 5 0 6 -99 2 -117 -5 -7 -2 -15 0 -18 5 -3 6 -15 6 -30
0 -15 -6 -27 -6 -30 0 -4 7 -13 6 -25 0 -12 -6 -21 -7 -25 0 -3 6 -15 6 -30 0
-14 -5 -27 -5 -30 0 -3 5 -18 5 -35 0 -18 -5 -32 -5 -35 1 -4 5 -13 5 -24 0
-10 -6 -23 -6 -31 -1 -8 5 -21 5 -31 -1 -11 -6 -20 -5 -24 1 -3 6 -15 6 -30 0
-14 -5 -27 -5 -30 0 -3 5 -18 5 -35 0 -17 -5 -32 -5 -35 0 -3 5 -16 5 -30 0
-15 -6 -27 -6 -30 0 -4 7 -13 6 -25 0 -12 -6 -21 -7 -25 0 -3 6 -15 6 -30 0
-14 -5 -27 -5 -30 0 -3 5 -18 5 -35 0 -18 -5 -32 -5 -35 1 -4 5 -13 5 -24 0
-10 -6 -23 -6 -31 -1 -8 5 -21 5 -31 -1 -11 -6 -20 -5 -24 1 -3 6 -15 6 -30 0
-15 -6 -27 -6 -30 0 -3 5 -15 6 -29 0 -12 -4 -29 -4 -36 0 -8 5 -21 5 -30 0
-9 -5 -23 -4 -32 1 -11 6 -19 6 -23 -1 -4 -7 -12 -7 -25 0 -12 7 -27 7 -44 0
-15 -5 -26 -6 -26 0 0 5 -12 5 -30 0 -16 -5 -30 -6 -30 -2 0 4 -25 7 -55 7
-30 0 -55 -3 -55 -7 0 -4 -14 -3 -30 2 -18 5 -30 5 -30 0 0 -6 -9 -6 -22 -1
-13 5 -33 5 -45 0 -13 -5 -23 -5 -23 1 0 5 -13 5 -30 0 -16 -5 -30 -6 -30 -2
0 4 -25 7 -55 7 -30 0 -55 -3 -55 -7 0 -4 -13 -3 -30 2 -16 5 -30 6 -30 2 0
-4 -22 -7 -50 -7 -27 0 -50 3 -50 7 0 4 -13 3 -30 -2 -16 -5 -30 -6 -30 -2 0
4 -27 7 -60 7 -33 0 -60 -3 -60 -7 0 -3 -12 -3 -27 1 -16 4 -43 4 -60 0 -18
-4 -33 -4 -33 0 0 7 -205 5 -226 -3 -8 -3 -14 -2 -14 2 0 4 -27 7 -60 7 -33 0
-60 -3 -60 -7 0 -4 -11 -3 -25 2 -15 6 -25 6 -25 0 0 -5 -12 -5 -30 0 -18 5
-30 5 -30 0 0 -6 -10 -6 -23 -1 -13 5 -30 5 -37 1 -8 -5 -22 -4 -31 1 -11 5
-20 5 -24 0 -3 -6 -17 -6 -35 -1 -17 5 -30 5 -30 0 0 -5 -13 -5 -30 0 -17 5
-30 5 -30 0 0 -5 -10 -6 -22 -1 -13 4 -35 5 -50 0 -16 -4 -28 -4 -28 1 0 5
-13 5 -30 0 -16 -5 -32 -5 -34 -1 -6 8 -71 5 -86 -4 -6 -3 -10 -2 -10 4 0 6
-11 6 -30 1 -16 -5 -30 -6 -30 -2 0 4 -25 7 -55 7 -30 0 -55 -3 -55 -7 0 -4
-13 -3 -30 2 -18 5 -30 5 -30 0 0 -6 -9 -6 -22 -1 -13 5 -33 5 -45 0 -13 -5
-23 -5 -23 1 0 5 -13 5 -30 0 -17 -5 -30 -6 -30 -2 0 4 -25 7 -55 7 -30 0 -55
-3 -55 -7 0 -4 -13 -3 -30 2 -16 5 -30 6 -30 2 0 -4 -22 -7 -50 -7 -27 0 -50
2 -50 5 0 6 -99 2 -117 -5 -7 -2 -15 0 -18 5 -3 6 -15 6 -30 0 -15 -6 -27 -6
-30 0 -4 7 -13 6 -25 0 -12 -6 -21 -7 -25 0 -3 6 -15 6 -30 0 -14 -5 -27 -5
-30 0 -3 5 -18 5 -35 0 -18 -5 -32 -5 -35 1 -4 5 -13 5 -24 0 -10 -6 -23 -6
-31 -1 -8 5 -21 5 -31 -1 -11 -6 -20 -5 -24 1 -3 6 -15 6 -30 0 -14 -5 -27 -5
-30 0 -3 5 -18 5 -35 0 -17 -5 -32 -5 -35 0 -3 5 -16 5 -30 0 -15 -6 -27 -6
-30 0 -4 7 -13 6 -25 0 -12 -6 -21 -7 -25 0 -3 6 -15 6 -30 0 -14 -5 -27 -5
-30 0 -3 5 -18 5 -35 0 -18 -5 -32 -5 -35 1 -4 5 -13 5 -24 0 -10 -6 -23 -6
-31 -1 -8 5 -21 5 -31 -1 -11 -6 -20 -5 -24 1 -3 6 -15 6 -30 0 -15 -6 -27 -6
-30 0 -3 5 -15 6 -29 0 -12 -4 -29 -4 -36 0 -8 5 -21 5 -30 0 -9 -5 -23 -4
-32 1 -11 6 -19 6 -23 -1 -4 -7 -12 -7 -25 0 -12 7 -27 7 -44 0 -15 -5 -26 -6
-26 0 0 5 -12 5 -30 0 -16 -5 -30 -6 -30 -2 0 4 -25 7 -55 7 -30 0 -55 -3 -55
-7 0 -4 -13 -3 -30 2 -18 5 -30 5 -30 0 0 -6 -9 -6 -22 -1 -13 5 -33 5 -45 0
-13 -5 -23 -5 -23 1 0 5 -13 5 -30 0 -16 -5 -30 -6 -30 -2 0 4 -25 7 -55 7
-30 0 -55 -3 -55 -7 0 -4 -13 -3 -30 2 -16 5 -30 6 -30 2 0 -8 -78 -7 -86 1
-3 3 -19 1 -35 -3 -17 -5 -29 -5 -29 0 0 5 -10 6 -22 1 -13 -4 -35 -5 -50 0
-16 4 -28 4 -28 -1 0 -5 -13 -5 -30 0 -17 5 -30 5 -30 0 0 -5 -10 -6 -22 -1
-13 4 -35 5 -50 0 -16 -4 -28 -4 -28 1 0 5 -13 5 -30 0 -17 -5 -32 -5 -35 0
-3 5 -16 5 -30 0 -15 -6 -27 -6 -30 0 -4 7 -13 6 -25 0 -12 -6 -21 -7 -25 0
-3 6 -15 6 -30 0 -15 -6 -27 -6 -30 1 -4 6 -13 6 -23 0 -9 -5 -26 -5 -39 0
-13 5 -25 4 -28 -1 -3 -5 -16 -6 -28 -2 -12 4 -35 6 -50 4z"/>
</g>
</svg>
