<svg xmlns="http://www.w3.org/2000/svg" viewBox="0 0 156 156">
  <circle cx="78" cy="78" r="78" style="fill:#c800ec"/>
  <path d="M80.12 31.15a47.13 47.13 0 0 1 17.4 3.22 45.31 45.31 0 0 1 14.82 9.57q6.63 6.36 10 17a62.19 62.19 0 0 1 2.3 24.12H57.47q1.83 9.76 8.75 14.46a26.7 26.7 0 0 0 15.37 4.69 25.16 25.16 0 0 0 10-1.93q4.51-1.94 6.17-4l1.66-1.84h23.2a42.82 42.82 0 0 1-16.57 21 44.72 44.72 0 0 1-25.23 7.55A45.45 45.45 0 0 1 48 111.7Q34.27 98.35 34.27 77.36q0-20.8 13.44-33.51a45.48 45.48 0 0 1 32.41-12.7zm.73 20.07a22.75 22.75 0 0 0-13.35 4.05 23.66 23.66 0 0 0-8.56 11.23h41.43Q96.5 51.22 80.85 51.22z" style="fill:#fff"/>
</svg>