<svg xmlns="http://www.w3.org/2000/svg" viewBox="0 0 340.81 45.08">
  <defs>
    <style>
      .cls-2,.cls-3,.cls-4{fill-rule:evenodd}.cls-2,.cls-3{fill:#fff}.cls-2{opacity:.2}.cls-2,.cls-3,.cls-4{isolation:isolate}.cls-3{opacity:.4}.cls-4{opacity:.35}
    </style>
  </defs>
  <g id="Layer_2" data-name="Layer 2">
    <g id="Layer_1-2" data-name="Layer 1">
      <path d="M15 30.05v15H0V0h15z" fill-rule="evenodd" fill="#023397"/>
      <path class="cls-2" d="M7.51 27.85a5.31 5.31 0 10-5.31-5.31 5.32 5.32 0 005.31 5.31m0 4.41a5.31 5.31 0 11-5.31 5.31 5.31 5.31 0 015.31-5.31zm0-30.06A5.31 5.31 0 112.2 7.51 5.32 5.32 0 017.51 2.2z"/>
      <path class="cls-3" d="M4.61 27zm0-15zm0 30z"/>
      <path class="cls-4" d="M12.83 22.54A5.31 5.31 0 014.61 27a5.31 5.31 0 107.63-7.39 5 5 0 00-.83-.7 5.27 5.27 0 011.44 3.63m0-15A5.32 5.32 0 014.63 12a5.32 5.32 0 107.68-7.35 5.87 5.87 0 00-.9-.75 5.29 5.29 0 011.42 3.64zm0 30.06A5.31 5.31 0 014.63 42a5.32 5.32 0 107.68-7.35 5.87 5.87 0 00-.9-.75 5.29 5.29 0 011.42 3.64z"/>
      <path d="M45 30.05v15H15v-15z" fill="#079733" fill-rule="evenodd"/>
      <path class="cls-2" d="M42.88 37.57a5.31 5.31 0 10-5.31 5.31 5.3 5.3 0 005.31-5.31m-20.34-5.31a5.31 5.31 0 11-5.31 5.31 5.31 5.31 0 015.31-5.31z"/>
      <path class="cls-3" d="M27 34.72zm15 0z"/>
      <path class="cls-4" d="M22.54 42.88a5.27 5.27 0 01-3.63-1.44 5.31 5.31 0 108.9-5.8 5.08 5.08 0 00-.82-1A5.31 5.31 0 0125.43 42a5.24 5.24 0 01-2.9.86m11.41-1.44a5.31 5.31 0 108.91-5.78 4.9 4.9 0 00-.83-1 5.31 5.31 0 01-8.08 6.77z"/>
      <path d="M45 15v15.05H15V15z" fill="#f7bc00" fill-rule="evenodd"/>
      <path class="cls-2" d="M42.72 22.54a5.24 5.24 0 10-5.23 5.31 5.22 5.22 0 005.23-5.31m-20.29-5.31a5.31 5.31 0 11-5.24 5.39v-.08a5.27 5.27 0 015.24-5.31z"/>
      <path class="cls-4" d="M22.43 27.85a5.16 5.16 0 01-3.58-1.43 5.21 5.21 0 004.38 2.41 5.33 5.33 0 003.58-9.19 5.32 5.32 0 01-4.38 8.21m11.48-1.43a5.22 5.22 0 009.62-2.9 5.35 5.35 0 00-1.66-3.88 5.32 5.32 0 01-4.38 8.21 5.16 5.16 0 01-3.58-1.43z"/>
      <path d="M45 0v15H15V0z" fill="#fd0000" fill-rule="evenodd"/>
      <path d="M42.81 7.49a5.3 5.3 0 10-5.3 5.31 5.29 5.29 0 005.3-5.31m-20.29-5.3a5.31 5.31 0 11-5.3 5.31 5.3 5.3 0 015.3-5.3z" style="isolation:isolate" opacity=".32" fill="#fff" fill-rule="evenodd"/>
      <path class="cls-4" d="M22.52 12.8a5.28 5.28 0 01-3.62-1.43 5.3 5.3 0 108.83-5.85A4.88 4.88 0 0027 4.6a5.3 5.3 0 01-4.44 8.2m11.36-1.43A5.31 5.31 0 1042 4.6a5.3 5.3 0 01-8.07 6.76z"/>
      <path d="M77.64 19.26H93v5.63H77.64v8.74h17.88v5.63H71.17V5.18h24.35v5.63H77.64zM99.92 31V5.18h6.13v25.39a3.67 3.67 0 00.76 2.64 3.83 3.83 0 002.74.77h2.32v5.28h-3.4q-4.35 0-6.45-2c-1.4-1.41-2.1-3.5-2.1-6.26zM120.62 28.2q0 6.17 6.32 6.17a6.84 6.84 0 003.48-.79 3 3 0 001.58-2.22l.05-.15h6v.3a7.73 7.73 0 01-3.28 5.95 13.18 13.18 0 01-8 2.25q-5.68 0-8.91-3.12t-3.24-9.08v-2.23q0-5.87 3.16-9t8.69-3.14q5.54 0 8.7 3.12t3.16 8.89v3h-17.71zm11.5-4.3v-.35a4.75 4.75 0 00-1.55-3.87 6.25 6.25 0 00-4.18-1.31q-5.43 0-5.77 5.53zM149.12 13.58v2.76a8.91 8.91 0 013.26-2.27 10.53 10.53 0 014-.79 10.18 10.18 0 014.24.87 7.93 7.93 0 013.21 2.59 10.86 10.86 0 018.25-3.46c3.16 0 5.62.88 7.36 2.64a10 10 0 012.62 7.34v16h-6.12V24.49a6.44 6.44 0 00-1.26-4.32 4.61 4.61 0 00-3.68-1.45 5 5 0 00-3.93 1.55 6.27 6.27 0 00-1.41 4.37v14.62h-6.12v-15a6 6 0 00-1.26-4.15 4.67 4.67 0 00-3.63-1.38 5.09 5.09 0 00-4 1.55 6.44 6.44 0 00-1.41 4.47v14.51h-6.12V13.58zM193.08 28.2q0 6.17 6.32 6.17a6.84 6.84 0 003.48-.79 3 3 0 001.56-2.22v-.15h6v.3a7.73 7.73 0 01-3.28 5.95 13.18 13.18 0 01-8 2.25q-5.68 0-8.92-3.12T187 27.51v-2.23q0-5.87 3.16-9t8.69-3.14q5.53 0 8.7 3.12t3.16 8.89v3h-17.63zm11.5-4.3v-.35a4.78 4.78 0 00-1.58-3.87 6.25 6.25 0 00-4.18-1.31q-5.43 0-5.77 5.53zM221.58 13.58v2.76a9.35 9.35 0 013.33-2.27 11.28 11.28 0 014.22-.79 9 9 0 016.92 2.64 10.38 10.38 0 012.47 7.34v16h-6.13V24.49q0-5.77-5.08-5.77a5.48 5.48 0 00-4.1 1.5 6.2 6.2 0 00-1.49 4.52v14.52h-6.12V13.58zM252.74 31a3.31 3.31 0 00.72 2.4 3.28 3.28 0 002.39.72H258v5.18h-3.31a8.16 8.16 0 01-6-2 7.86 7.86 0 01-2.07-5.85V17.88h-4.5v-4.3h4.5v-5l6.07-2.12v7.16h5.83v4.3h-5.83zM262.27 31.36v-.15H268v.1a2.72 2.72 0 001.44 2.42 8.16 8.16 0 004.24.89 8.53 8.53 0 004-.74 2.35 2.35 0 001.32-2.17 2.05 2.05 0 00-1-1.83 7.33 7.33 0 00-3.14-.89l-3.8-.45q-4.35-.54-6.4-2.29a6.23 6.23 0 01-2.05-5 6.82 6.82 0 012.87-5.87q2.85-2.08 7.85-2.08c3.42 0 6.11.69 8.05 2.08a6.64 6.64 0 012.91 5.73v.19h-5.68v-.14a2.51 2.51 0 00-1.33-2.28 8.09 8.09 0 00-4-.79 7.51 7.51 0 00-3.73.72 2.25 2.25 0 00-1.21 2.05 2.07 2.07 0 00.84 1.73 5.67 5.67 0 002.82.84l4.09.49q4.46.5 6.57 2.35a6.35 6.35 0 012.13 5.06 7 7 0 01-3.09 6.12c-2.06 1.42-4.86 2.13-8.42 2.13s-6.21-.72-8.15-2.15a7.09 7.09 0 01-2.86-6.07zM302.36 33.66a12.66 12.66 0 01-1.71-6.66V5.18h6.47v21.63A7.06 7.06 0 00309 32.1a7.4 7.4 0 005.38 1.83 7.6 7.6 0 005.44-1.83 7 7 0 001.92-5.29V5.18h6.47V27a12.75 12.75 0 01-1.7 6.65 11.29 11.29 0 01-4.84 4.35 16.43 16.43 0 01-7.29 1.53 16.17 16.17 0 01-7.21-1.53 11.27 11.27 0 01-4.81-4.34zM340.81 5.18v34.08h-6.47V5.18z"/>
    </g>
  </g>
</svg>