<svg xmlns="http://www.w3.org/2000/svg" viewBox="0 0 146.59 38.85">
  <defs>
    <radialGradient id="a" cx="-413.12" cy="529.83" r="1" gradientTransform="matrix(0 38.3 44.12 0 -23358.23 15822.98)" gradientUnits="userSpaceOnUse">
      <stop offset="0" stop-color="#20c6b7"/>
      <stop offset="1" stop-color="#4d9abf"/>
    </radialGradient>
  </defs>
  <path d="M53.24 12.15l.12 2.2a6.84 6.84 0 0 1 5.53-2.55q5.92 0 6 6.8v12.57h-4.23V18.85a3.92 3.92 0 0 0-.78-2.68 3.28 3.28 0 0 0-2.55-.87 4.11 4.11 0 0 0-3.84 2.33v13.54h-4.26v-19zm24.38 19.37A8.8 8.8 0 0 1 71.05 29a9.26 9.26 0 0 1-2.51-6.81v-.52a11.43 11.43 0 0 1 1.09-5.09 8.32 8.32 0 0 1 3.08-3.49 8.13 8.13 0 0 1 4.42-1.25 7.46 7.46 0 0 1 6 2.48q2.11 2.47 2.11 7V23H72.83a5.72 5.72 0 0 0 1.57 3.73 4.72 4.72 0 0 0 3.46 1.37 5.75 5.75 0 0 0 4.77-2.37l2.3 2.2a7.72 7.72 0 0 1-3 2.64 9.46 9.46 0 0 1-4.27.94zm-.51-16.29a3.58 3.58 0 0 0-2.83 1.23 6.38 6.38 0 0 0-1.38 3.43H81v-.32a5.14 5.14 0 0 0-1.14-3.24 3.52 3.52 0 0 0-2.75-1.1zm16.77-7.7v4.62h3.35v3.16h-3.35v10.62a2.3 2.3 0 0 0 .43 1.57 1.94 1.94 0 0 0 1.53.49 6.26 6.26 0 0 0 1.49-.18v3.31a10.42 10.42 0 0 1-2.81.4q-4.9 0-4.9-5.43V15.31h-3.13v-3.16h3.12V7.53h4.27zM105 31.17h-4.26v-27H105zm9.17 0h-4.26v-19h4.26zm-4.52-24a2.28 2.28 0 0 1 .62-1.63 2.33 2.33 0 0 1 1.78-.65 2.36 2.36 0 0 1 1.79.65 2.25 2.25 0 0 1 .63 1.63 2.2 2.2 0 0 1-.63 1.61 2.39 2.39 0 0 1-1.79.64 2.37 2.37 0 0 1-1.78-.64 2.23 2.23 0 0 1-.62-1.61zm10.66 24V15.31h-2.89v-3.16h2.89v-1.74a6.55 6.55 0 0 1 1.76-4.89A6.69 6.69 0 0 1 127 3.8a9.89 9.89 0 0 1 2.38.32l-.1 3.34a8.16 8.16 0 0 0-1.63-.14c-2 0-3.06 1-3.06 3.14v1.69h3.86v3.16h-3.86v15.86zm17.87-6.12l3.86-12.9h4.54l-7.54 21.9q-1.74 4.8-5.89 4.8a7.62 7.62 0 0 1-2-.31v-3.31l.8.05a4.07 4.07 0 0 0 2.43-.59 3.82 3.82 0 0 0 1.29-2l.62-1.64-6.67-18.93h4.6l4 12.9z" style="fill:#fff;fill-rule:evenodd"/>
  <path d="M27.76 13.31a.17.17 0 0 1 0-.1l.78-4.72 3.62 3.62-3.84 1.59h-.07a1.62 1.62 0 0 0-.49-.39zM33 13l3.87 3.87c.81.81 1.21 1.21 1.36 1.68a1.6 1.6 0 0 1 0 .21L29 14.85s-.08 0-.08-.07 0-.06.08-.07zm5.12 7a7.15 7.15 0 0 1-1.25 1.43L32.5 25.8l-5.65-1.18c-.05 0-.1 0-.1-.06a1.71 1.71 0 0 0-.66-1.19v-.09l1.07-6.52c0-.05 0-.11.06-.11a1.74 1.74 0 0 0 1.14-.65h.1l9.68 4zm-6.62 6.8L24.33 34l1.23-7.56h.06a1.79 1.79 0 0 0 .7-.52.2.2 0 0 1 .09-.06l5.06 1zm-8.71 8.71l-.81.81-8.93-12.92a.07.07 0 0 1 0-.06l.08-.12a.1.1 0 0 1 0-.06.09.09 0 0 1 .07 0l9.92 2h.08a1.75 1.75 0 0 0 1 1.17v.08c-.03.82-1.1 7.35-1.39 9.12zM21.1 37.2a3.83 3.83 0 0 1-1.35 1 2 2 0 0 1-1.2 0c-.47-.15-.87-.55-1.68-1.36l-9-9 2.35-3.64a.1.1 0 0 1 0-.05h.09a2.49 2.49 0 0 0 1.69-.02h.07l9 13.06zM7 27l-2-2 4-1.77s.05 0 .07.06a2.14 2.14 0 0 0 .13.19v.05L7 27zm-3-3l-2.55-2.55-1-1 7.93 1.64c.05 0 .1 0 .1.06s0 .07-.1.09zm-4-4.94a2 2 0 0 1 .09-.49c.15-.47.55-.87 1.36-1.68l3.34-3.34c1.53 2.24 3.08 4.45 4.62 6.69 0 0 .06.08 0 .11a2.63 2.63 0 0 0-.4.53v.06H9l-9-1.88zm5.68-6.4l4.49-4.49 3.33 1.41 2.29 1a.2.2 0 0 1 .07.06v.06a2 2 0 0 0 .52 1.83v.11l-4.56 7.06a.14.14 0 0 1-.09 0 2 2 0 0 0-.54-.07 3.32 3.32 0 0 0-.52.06h-.06l-4.81-7zm5.4-5.4l5.81-5.81C17.7.64 18.1.24 18.57.09a2 2 0 0 1 1.2 0c.47.15.87.55 1.68 1.36l1.26 1.26-4.14 6.4a.1.1 0 0 1 0 .05.1.1 0 0 1-.09 0 2.11 2.11 0 0 0-1.92.37h-.1a1067 1067 0 0 1-5.38-2.27zm12.5-3.67L27.4 7.4l-.92 5.7a1.61 1.61 0 0 0-.54.27h-.05L20 11s-.08 0-.08-.07a2.14 2.14 0 0 0-.31-.92s-.06-.09 0-.14zm-3.93 8.6l5.46 2.31s.06 0 .07.06a.06.06 0 0 1 0 .06 2.06 2.06 0 0 0 0 .26V15s0 .06-.07.07l-12.19 5.21h-.05c-.05 0 0-.07 0-.11l4.48-6.94s.05-.09.1-.09h.33a2 2 0 0 0 1.69-.9.12.12 0 0 1 .18-.05zm-6.24 9.19l12.28-5.24.18.15s.05 0 .05.05l-1.05 6.46c0 .05 0 .1-.06.1a1.73 1.73 0 0 0-1.37.85.13.13 0 0 1-.05.06h-.07l-9.79-2s-.11-.43-.12-.43z" style="fill:url(#a)"/>
</svg>