<svg xmlns="http://www.w3.org/2000/svg" viewBox="0 0 392.48 97.36">
  <path d="M0 94.79V2.57h24L68.25 59V2.57H92.1v92.22H68.25L24 38.4v56.39zM167 22.87h-28.5v15.41h26.91v20.3h-26.96v15.9H167v20.31h-52.52V2.57H167zM202.66 2.57l15.9 59.56 19.57-59.56h19.08l19.57 59.56 15.9-59.56h25.07l-27.52 92.22h-24.46l-18.1-53.45-18.1 53.45h-24.46L177.59 2.57zM379.15 26.17a29.91 29.91 0 0 0-7.83-4.71 20.93 20.93 0 0 0-7.58-1.52 12.28 12.28 0 0 0-7.58 2.2 6.84 6.84 0 0 0-2.94 5.75 5.7 5.7 0 0 0 1.47 4 12.71 12.71 0 0 0 3.85 2.75 32.44 32.44 0 0 0 5.39 2c2 .57 4 1.19 5.93 1.84Q381.61 42.45 387 49t5.44 17.07a33.19 33.19 0 0 1-2.38 12.84 26.75 26.75 0 0 1-7 9.84 31.91 31.91 0 0 1-11.26 6.36 46.75 46.75 0 0 1-15.1 2.27A55.56 55.56 0 0 1 324.36 87l10.27-19.32a41.82 41.82 0 0 0 10.64 7.09 25.57 25.57 0 0 0 10.4 2.32c3.91 0 6.83-.89 8.74-2.69a8.3 8.3 0 0 0 2.14-9.72 7.75 7.75 0 0 0-2.44-2.81 19.6 19.6 0 0 0-4.47-2.39c-1.83-.73-4.05-1.55-6.66-2.44q-4.65-1.47-9.11-3.25a28.43 28.43 0 0 1-7.95-4.79 21.81 21.81 0 0 1-5.63-7.39 26.15 26.15 0 0 1-2.14-11.32 32.65 32.65 0 0 1 2.26-12.41 27.63 27.63 0 0 1 6.36-9.54 28.42 28.42 0 0 1 10-6.18A37.89 37.89 0 0 1 360.07 0a57.76 57.76 0 0 1 14.31 1.9 62.88 62.88 0 0 1 14.31 5.56z"/>
</svg>