<svg xmlns="http://www.w3.org/2000/svg" viewBox="0 0 156 156">
  <defs/>
  <circle cx="78" cy="78" r="78" fill="#c800ec"/>
  <path fill="#fff" d="M55.19 93q9.66 0 14.86 5.62a18.69 18.69 0 0 1 5 13.82q-.36 9.91-8.19 15t-19.45 5.13q-13.94 0-21.58-7t-5.5-17.07l7-5.63q-6.48-4-6.48-10.76t7.59-10.89a19.06 19.06 0 0 1-6.24-14.67 19.29 19.29 0 0 1 6.6-15q6.6-5.93 17.86-5.93a29.77 29.77 0 0 1 13.94 3.06 29.47 29.47 0 0 0 5.57-3.36 24 24 0 0 0 3.7-3.32L71 40.74l7.58 10.15a35.89 35.89 0 0 1-9.78 4.53 18.31 18.31 0 0 1 3.54 11q0 8.82-7.34 14.87t-18.71 6a31.28 31.28 0 0 1-8.68-1.1 3.39 3.39 0 0 0-1.84 3.06 3.57 3.57 0 0 0 .37 1.59 2.39 2.39 0 0 0 1.1 1.1 11.44 11.44 0 0 0 1.47.61 7.7 7.7 0 0 0 2 .3c.81 0 1.46.07 2 .07h12.6zm-7.58 25.44c3.91 0 7-.6 9.11-1.78s3.28-2.78 3.28-4.74q0-5.86-9.54-5.87c-5.46 0-9.38 0-11.74-.12l-4.16 4.4c-.49 1.88.35 3.69 2.51 5.45s5.64 2.63 10.54 2.63zm-.37-59.84q-5.13 0-7.77 2.08a6.79 6.79 0 0 0-2.63 5.62 7.26 7.26 0 0 0 2.63 5.87q2.64 2.2 7.77 2.21T55 72.17a7.19 7.19 0 0 0 2.69-5.87A6.73 6.73 0 0 0 55 60.68q-2.75-2.08-7.76-2.08zM113.16 45.75a31.24 31.24 0 0 1 11.56 2.15 29.84 29.84 0 0 1 9.85 6.36 26.47 26.47 0 0 1 6.66 11.31 41.28 41.28 0 0 1 1.53 16H98.12q1.22 6.48 5.81 9.6a17.75 17.75 0 0 0 10.21 3.12 16.88 16.88 0 0 0 6.67-1.29 11 11 0 0 0 4.1-2.63l1.1-1.23h15.41a28.48 28.48 0 0 1-11 14 29.77 29.77 0 0 1-16.76 5 30.15 30.15 0 0 1-21.83-8.87q-9.1-8.87-9.11-22.81t8.93-22.26a30.22 30.22 0 0 1 21.51-8.45zm.49 13.34a15.09 15.09 0 0 0-8.86 2.69 15.66 15.66 0 0 0-5.69 7.46h27.52q-2.56-10.15-12.97-10.15z"/>
</svg>