<svg xmlns="http://www.w3.org/2000/svg" class="icon-instagram" viewBox="0 0 15 16"><path d="M4.629.899c.765-.035 1.01-.043 2.96-.043s2.193.008 2.958.043c.765.035 1.287.157 1.743.333.479.181.913.464 1.272.83.365.357.647.79.827 1.27.178.457.299.979.334 1.742.035.767.043 1.01.043 2.96s-.008 2.194-.043 2.96c-.034.763-.156 1.285-.334 1.742a3.52 3.52 0 01-.827 1.271 3.52 3.52 0 01-1.271.828c-.457.177-.98.299-1.743.334-.766.035-1.01.043-2.96.043s-2.194-.008-2.96-.043c-.763-.035-1.285-.157-1.741-.334a3.52 3.52 0 01-1.272-.828 3.519 3.519 0 01-.828-1.27c-.177-.457-.299-.98-.334-1.743-.035-.767-.043-1.01-.043-2.96S.42 5.84.453 5.075C.488 4.311.61 3.79.787 3.332c.18-.48.463-.913.828-1.271a3.519 3.519 0 011.27-.829c.458-.176.98-.298 1.743-.333zm5.86 1.292c-.757-.034-.984-.042-2.9-.042-1.917 0-2.144.007-2.901.042-.7.032-1.08.149-1.334.247-.334.13-.574.286-.825.537a2.226 2.226 0 00-.536.825c-.099.253-.216.633-.248 1.333-.034.757-.041.984-.041 2.901 0 1.917.007 2.144.041 2.9.032.7.15 1.08.248 1.334.114.311.298.594.536.825.232.239.514.422.825.537.254.098.633.215 1.334.247.757.035.983.042 2.9.042 1.917 0 2.144-.007 2.9-.042.701-.032 1.08-.149 1.334-.247.335-.13.574-.286.826-.537.238-.231.421-.514.536-.825.098-.253.215-.633.247-1.333.035-.757.042-.984.042-2.901 0-1.917-.007-2.144-.042-2.9-.032-.7-.149-1.08-.247-1.334a2.23 2.23 0 00-.536-.825 2.227 2.227 0 00-.826-.537c-.253-.098-.633-.215-1.333-.247zM6.67 10.247a2.393 2.393 0 002.61-3.906 2.395 2.395 0 10-2.61 3.906zM4.98 5.425a3.69 3.69 0 115.218 5.218A3.69 3.69 0 014.98 5.425zm7.117-.531a.874.874 0 00-.611-1.507.872.872 0 10.611 1.507z" /></svg>