<svg xmlns="http://www.w3.org/2000/svg" viewBox="0 0 315.92 123.77">
  <defs>
    <style>
      .a{fill:#6d6d6d}
    </style>
  </defs>
  <path class="a" d="M24 0v71.92h28.71v20.3H0V0zM63.6 60.3a30.63 30.63 0 0 1 2.81-13 32.22 32.22 0 0 1 7.83-10.52 37.24 37.24 0 0 1 11.93-7 43 43 0 0 1 15.1-2.57 43.61 43.61 0 0 1 15 2.51 37.22 37.22 0 0 1 12 7 31.5 31.5 0 0 1 7.89 10.64A32.63 32.63 0 0 1 138.97 61a32 32 0 0 1-2.87 13.64 32.59 32.59 0 0 1-7.89 10.64 35.48 35.48 0 0 1-12.05 6.91 46.06 46.06 0 0 1-15.23 2.44A44.1 44.1 0 0 1 86 92.1a34.46 34.46 0 0 1-11.8-7 32.5 32.5 0 0 1-7.79-10.8 34.06 34.06 0 0 1-2.81-14zm23.4.24a14.28 14.28 0 0 0 1.16 5.81 15.75 15.75 0 0 0 3.06 4.59A13.53 13.53 0 0 0 95.71 74a14.63 14.63 0 0 0 11.13 0 13.59 13.59 0 0 0 4.52-3.06 15.75 15.75 0 0 0 3.06-4.59 14 14 0 0 0 1.16-5.69 13.68 13.68 0 0 0-1.16-5.56 15.88 15.88 0 0 0-3.06-4.59 13.41 13.41 0 0 0-4.52-3 14.51 14.51 0 0 0-11.13 0 13.36 13.36 0 0 0-4.53 3A16.14 16.14 0 0 0 88.12 55 13.23 13.23 0 0 0 87 60.54zM224.92 29.48v58.46a65 65 0 0 1-.61 9.42 41.4 41.4 0 0 1-1.71 7.34 23.17 23.17 0 0 1-4.59 7.52 30.79 30.79 0 0 1-7.52 6 39.93 39.93 0 0 1-10 4 50.4 50.4 0 0 1-25.5-.37 36.55 36.55 0 0 1-10.7-5.08 29.42 29.42 0 0 1-7.52-7.58 25.18 25.18 0 0 1-3.92-9.48h25q2.32 6.24 10.52 6.24 7 0 10.7-3.91t3.74-10.89v-6A38.28 38.28 0 0 1 198.1 89a26.59 26.59 0 0 1-4.59 2.51A21.65 21.65 0 0 1 188.6 93a33.82 33.82 0 0 1-5.63.43 32 32 0 0 1-12.35-2.32 28.58 28.58 0 0 1-16.09-16.45 35.22 35.22 0 0 1-2.26-12.9 36.11 36.11 0 0 1 2.45-13.4 34.59 34.59 0 0 1 6.66-10.76 30.82 30.82 0 0 1 10-7.22 30.4 30.4 0 0 1 12.66-2.63 24.36 24.36 0 0 1 18.72 8.32v-6.6zm-49.65 31.06a14.47 14.47 0 0 0 1.1 5.69 14.75 14.75 0 0 0 3 4.59 13.46 13.46 0 0 0 4.53 3.05 14.47 14.47 0 0 0 5.69 1.1 14.14 14.14 0 0 0 5.56-1.1 13.56 13.56 0 0 0 4.53-3.05 15.66 15.66 0 0 0 3.05-4.59 13.54 13.54 0 0 0 1.17-5.57 13.4 13.4 0 0 0-1.18-5.66 15.14 15.14 0 0 0-3.12-4.53 14.08 14.08 0 0 0-4.58-3 13.89 13.89 0 0 0-5.44-1.11 13.13 13.13 0 0 0-5.51 1.17 15.71 15.71 0 0 0-4.52 3 14.39 14.39 0 0 0-3.12 4.47 13.08 13.08 0 0 0-1.16 5.54zM240.58 60.3a30.48 30.48 0 0 1 2.81-13 31.94 31.94 0 0 1 7.83-10.52 37.3 37.3 0 0 1 11.92-7 43.1 43.1 0 0 1 15.11-2.57 43.65 43.65 0 0 1 15 2.51 37.22 37.22 0 0 1 12 7 31.34 31.34 0 0 1 7.88 10.64A32.48 32.48 0 0 1 315.95 61 31.9 31.9 0 0 1 313 74.55a32.42 32.42 0 0 1-7.88 10.64 35.48 35.48 0 0 1-12.05 6.91 46.1 46.1 0 0 1-15.23 2.44A44.06 44.06 0 0 1 263 92.1a34.46 34.46 0 0 1-11.8-7 32.22 32.22 0 0 1-7.77-10.83 33.9 33.9 0 0 1-2.85-13.97zm23.36.24a14.12 14.12 0 0 0 1.16 5.81 15.36 15.36 0 0 0 3.06 4.59 13.59 13.59 0 0 0 4.52 3.06 14.63 14.63 0 0 0 11.13 0 13.73 13.73 0 0 0 4.53-3.06 15.75 15.75 0 0 0 3.06-4.59 14 14 0 0 0 1.16-5.69 13.68 13.68 0 0 0-1.16-5.56 15.88 15.88 0 0 0-3.06-4.59 13.56 13.56 0 0 0-4.53-3 14.51 14.51 0 0 0-11.13 0 13.41 13.41 0 0 0-4.52 3A15.73 15.73 0 0 0 265.1 55a13.08 13.08 0 0 0-1.16 5.54z"/>
</svg>