<svg xmlns="http://www.w3.org/2000/svg" viewBox="0 0 624.65 90.89">
<defs>
    <style>
      .logo-blue{fill: #023397}.logo-red{fill:#079733}.logo-green{fill:#f7bc00}.logo-yellow{fill:#fd0000}.logo-text{fill:#282828}
    </style>
</defs>
  <path class="logo-blue" style="fill-rule:evenodd" d="M30.3 61.78v30.29H0V1.19h30.3v60.59z"/>
  <path style="fill-rule:evenodd;fill:#fff;opacity:0.2" d="M15.15 57.34A10.71 10.71 0 1 0 4.44 46.63a10.72 10.72 0 0 0 10.71 10.71m0 8.88A10.71 10.71 0 1 1 4.44 76.93a10.71 10.71 0 0 1 10.71-10.71zm0-60.6A10.71 10.71 0 1 1 4.44 16.33 10.72 10.72 0 0 1 15.15 5.62z"/>
  <path style="fill-rule:evenodd;fill:#fff;opacity:0.4" d="M5.46 77.67a10.71 10.71 0 0 1 16.45-9 10.7 10.7 0 1 0-12.6 17.22 10.67 10.67 0 0 1-3.85-8.22m0-30.3a10.71 10.71 0 0 1 16.45-9 10.7 10.7 0 1 0-12.6 17.22 10.66 10.66 0 0 1-3.85-8.22zM9.3 55.6l.1.07zM5.46 17.07A10.71 10.71 0 0 1 21.91 8a10.7 10.7 0 1 0-12.6 17.3 10.69 10.69 0 0 1-3.85-8.23zm3.84 8.24l.1.06zm0 60.59l.1.07z"/>
  <path style="fill-rule:evenodd;opacity:0.35" d="M25.86 46.63a10.71 10.71 0 0 1-16.56 9A10.71 10.71 0 1 0 23 39.31a10.64 10.64 0 0 1 2.9 7.32m0-30.3a10.72 10.72 0 0 1-16.56 9A10.71 10.71 0 1 0 23 9a10.66 10.66 0 0 1 2.86 7.33zm0 60.6a10.71 10.71 0 0 1-16.56 9A10.71 10.71 0 1 0 23 69.6a10.67 10.67 0 0 1 2.86 7.33z"/>
  <path class="logo-red" style="fill-rule:evenodd" d="M90.72 61.78v30.29H30.3V61.78h60.42z"/>
  <path style="fill-rule:evenodd;fill:#fff;opacity:0.2" d="M86.45 76.92a10.71 10.71 0 1 0-10.71 10.72 10.71 10.71 0 0 0 10.71-10.72m-41-10.7a10.71 10.71 0 1 1-10.71 10.7 10.7 10.7 0 0 1 10.7-10.7z"/>
  <path style="fill-rule:evenodd;fill:#fff;opacity:0.4" d="M76.48 67.24a10.66 10.66 0 0 1 8.22 3.85 10.7 10.7 0 1 0-17.26 12.6 10.71 10.71 0 0 1 9-16.45m-22.03 3.85a10.7 10.7 0 1 0-17.27 12.6 10.71 10.71 0 0 1 17.27-12.6zm.07.09l-.06-.1zm30.3 0l-.07-.1z"/>
  <path style="fill-rule:evenodd;opacity:0.35" d="M45.44 87.64a10.66 10.66 0 0 1-7.32-2.9 10.71 10.71 0 1 0 16.3-13.66 10.72 10.72 0 0 1-9 16.56m23-2.9a10.71 10.71 0 1 0 16.29-13.66 10.71 10.71 0 0 1-16.29 13.66z"/>
  <path class="logo-green" style="fill-rule:evenodd" d="M90.72 31.4v30.38H30.3V31.4h60.42z"/>
  <path style="fill-rule:evenodd;fill:#fff;opacity:0.2" d="M86.12 46.63a10.55 10.55 0 1 0-10.55 10.71 10.63 10.63 0 0 0 10.55-10.71M45.21 35.92a10.71 10.71 0 1 1-10.55 10.71 10.63 10.63 0 0 1 10.55-10.71z"/>
  <path style="fill-rule:evenodd;fill:#fff;opacity:0.4" d="M76.3 36.94a10.49 10.49 0 0 1 8.1 3.85 10.45 10.45 0 0 0-8.83-4.87A10.63 10.63 0 0 0 65 46.63a10.79 10.79 0 0 0 2.4 6.77 10.82 10.82 0 0 1-1.65-5.75A10.64 10.64 0 0 1 76.3 36.94M54 40.79a10.46 10.46 0 0 0-8.83-4.87A10.74 10.74 0 0 0 37 53.4a10.74 10.74 0 0 1 8.9-16.46 10.49 10.49 0 0 1 8.1 3.85zm.07.1l-.06-.11zm29.84 0l-.07-.11z"/>
  <path style="fill-rule:evenodd;opacity:0.35" d="M45.21 57.34A10.45 10.45 0 0 1 38 54.45a10.52 10.52 0 0 0 8.84 4.86A10.63 10.63 0 0 0 57.38 48.6a10.77 10.77 0 0 0-3.33-7.82 10.79 10.79 0 0 1 1.71 5.85 10.63 10.63 0 0 1-10.55 10.71m23.15-2.89a10.53 10.53 0 0 0 8.84 4.86A10.64 10.64 0 0 0 87.75 48.6a10.78 10.78 0 0 0-3.34-7.82 10.79 10.79 0 0 1 1.71 5.85 10.63 10.63 0 0 1-10.55 10.71 10.45 10.45 0 0 1-7.21-2.89z"/>
  <path class="logo-yellow" style="fill-rule:evenodd" d="M90.72 1.19V31.4H30.3V1.19h60.42z"/>
  <path d="M86.3 16.29A10.68 10.68 0 1 0 75.62 27 10.68 10.68 0 0 0 86.3 16.29M45.4 5.61a10.69 10.69 0 1 1-10.68 10.68A10.68 10.68 0 0 1 45.4 5.61z" style="opacity:0.18;fill:#fff;fill-rule:evenodd"/>
  <path style="fill-rule:evenodd;fill:#fff;opacity:0.4" d="M76.35 6.63a10.66 10.66 0 0 1 8.21 3.84A10.68 10.68 0 1 0 67.34 23a10.57 10.57 0 0 1-1.67-5.73A10.68 10.68 0 0 1 76.35 6.63m-22 3.84A10.68 10.68 0 1 0 37.12 23a10.68 10.68 0 0 1 17.22-12.53zm.08.1l-.07-.11zm30.21 0l-.06-.11z"/>
  <path style="fill-rule:evenodd;opacity:0.35" d="M45.4 27a10.65 10.65 0 0 1-7.3-2.89 10.68 10.68 0 1 0 16.25-13.65A10.69 10.69 0 0 1 45.4 27m22.91-2.89a10.69 10.69 0 1 0 16.26-13.65 10.69 10.69 0 0 1-16.26 13.63z"/>
  <path class="logo-text"  d="M177.07 72.4h36.05v13.25h-49.94V11.44h48.88v13.25h-35v16.75h31.8v13.25h-31.8zM224.78 10.38h13.78v75.27h-13.78zM277.89 32.11a27.11 27.11 0 0 1 10 1.86 25.86 25.86 0 0 1 8.53 5.51 23 23 0 0 1 5.78 9.8 35.87 35.87 0 0 1 1.32 13.89h-38.67a12.24 12.24 0 0 0 5 8.32 15.34 15.34 0 0 0 8.86 2.71 14.35 14.35 0 0 0 5.77-1.12 9.45 9.45 0 0 0 3.55-2.27l1-1.07h13.36a24.69 24.69 0 0 1-9.54 12.09 25.8 25.8 0 0 1-14.53 4.35 26.14 26.14 0 0 1-18.92-7.69q-7.9-7.68-7.9-19.77t7.74-19.29a26.18 26.18 0 0 1 18.65-7.32zm.42 11.56a13 13 0 0 0-7.68 2.33 13.56 13.56 0 0 0-4.93 6.47h23.85q-2.23-8.8-11.24-8.8zM375.52 32q10-.09 15 6.63t5 18.29v28.73h-14.1V60.1c0-5.66-.28-9.33-.85-11q-1.8-5.19-8.16-4.66-9.54.73-9.54 16.32v24.89h-14V60.1c0-5.66-.28-9.33-.84-11q-1.81-5.19-8.17-4.66-9.54.73-9.54 16.32v24.89h-14v-53h10.81l1.59 5.73h1.7a15.48 15.48 0 0 1 12.83-6.26q8.9-.21 14.52 7.32h1.59q5.89-7.33 16.16-7.44zM434.79 32.11a27 27 0 0 1 10 1.86 25.9 25.9 0 0 1 8.54 5.51 22.92 22.92 0 0 1 5.77 9.8 35.86 35.86 0 0 1 1.33 13.89h-38.68a12.24 12.24 0 0 0 5 8.32 15.34 15.34 0 0 0 8.85 2.71 14.39 14.39 0 0 0 5.78-1.12 9.45 9.45 0 0 0 3.62-2.27l1-1.07h13.35a24.69 24.69 0 0 1-9.54 12.09 25.75 25.75 0 0 1-14.52 4.35 26.14 26.14 0 0 1-18.92-7.69q-7.91-7.68-7.9-19.77t7.74-19.29a26.17 26.17 0 0 1 18.58-7.32zm.42 11.56a13.07 13.07 0 0 0-7.69 2.33 13.62 13.62 0 0 0-4.93 6.47h23.86q-2.23-8.8-11.24-8.8zM503.8 32.11q10 0 15.16 6.73t5.19 18.08v28.73h-14.1V60.1l.11-1c0-.63 0-1.2-.05-1.69s-.08-1.19-.11-2.07a11.81 11.81 0 0 0-.32-2.38c-.18-.71-.39-1.51-.63-2.39a8.16 8.16 0 0 0-1.05-2.29 11.68 11.68 0 0 0-1.59-1.86 7.3 7.3 0 0 0-2.29-1.42 10.2 10.2 0 0 0-3-.63 12.79 12.79 0 0 0-4.3.53 14.6 14.6 0 0 0-4.45 2.28 11.5 11.5 0 0 0-3.71 5.14 22.13 22.13 0 0 0-1.43 8.37v24.96h-14v-53h10.81l1.8 6.47h1.8q5.88-7.02 16.16-7.01zM570.05 72.29l5.09 9.43a15 15 0 0 1-1.48 1.28 19 19 0 0 1-4.24 2 20.6 20.6 0 0 1-20.3-3.66 16.11 16.11 0 0 1-5.57-12.72V44H533V33.6h5.3a5.85 5.85 0 0 0 4.4-1.7 6.25 6.25 0 0 0 1.64-4.56v-10.6h12.83v15.9h13.36V44h-13.41v23.73a6 6 0 0 0 2 4.51 6.79 6.79 0 0 0 4.83 1.85 9.78 9.78 0 0 0 2.91-.48 14.94 14.94 0 0 0 2.39-.9zM611.61 48.22q-1.17-4.87-7.53-4.87a7.34 7.34 0 0 0-4.77 1.32 4 4 0 0 0-1.59 3.13q0 3.72 7.95 5.3 4.25 1 7.05 1.86a29.43 29.43 0 0 1 5.83 2.65 11.48 11.48 0 0 1 4.56 4.66 14.67 14.67 0 0 1 1.54 6.95q0 7.95-5.67 12.45t-14.26 4.51A23.81 23.81 0 0 1 589.19 81a17.82 17.82 0 0 1-6.73-13.52h13a8.46 8.46 0 0 0 2.43 5.14c1.42 1.45 3.57 2.17 6.47 2.17 4.45 0 6.68-1.69 6.68-5.09a4.25 4.25 0 0 0-1.91-3.86 18.06 18.06 0 0 0-5.4-2.07c-1.84-.43-3.1-.73-3.77-.9s-2-.57-4-1.17a16.42 16.42 0 0 1-4.55-2c-1-.71-2.21-1.61-3.56-2.7a9.45 9.45 0 0 1-2.91-4 14.76 14.76 0 0 1-.9-5.25 13.22 13.22 0 0 1 6-11.55 24.43 24.43 0 0 1 14.26-4.14q8.69 0 14.25 4.61a16.09 16.09 0 0 1 6.1 11.5z"/>
</svg>